<mxfile host="app.diagrams.net" modified="2023-07-06T06:42:35.928Z" agent="Mozilla/5.0 (Macintosh; Intel Mac OS X 10.15; rv:109.0) Gecko/20100101 Firefox/114.0" version="21.5.0" etag="AWe-OO8h0GBgivsTJYyp" type="github">
  <diagram name="第 1 页" id="Bw-9Et-lMyN-5SzerrJ3">
    <mxGraphModel>
      <root>
        <mxCell id="0" />
        <mxCell id="1" parent="0" />
      </root>
    </mxGraphModel>
  </diagram>
</mxfile>
